<svg xmlns="http://www.w3.org/2000/svg" width="512" height="512" viewBox="0 0 96 96" role="img" aria-label="Shopi">
  <defs>
    <linearGradient id="brush" x1="8" y1="10" x2="88" y2="86" gradientUnits="userSpaceOnUse">
      <stop offset="0" stop-color="#E80063"/>
      <stop offset="0.55" stop-color="#E0005C"/>
      <stop offset="1" stop-color="#C60050"/>
    </linearGradient>
  </defs>
  <!-- brand-pink brush tile -->
  <rect width="96" height="96" rx="22" fill="url(#brush)"/>
  <!-- bold hand-painted white "S" matching the SHOPI brush wordmark -->
  <path fill="none" stroke="#FBF7F9" stroke-width="8.5" stroke-linecap="round" stroke-linejoin="round"
        d="M62 34c-3.1-2.9-7.3-4.5-11.9-4.5-4.8 0-8.9 1.7-11.6 4.6-2 2.2-3 4.9-2.7 7.6.4 3 2.1 5.4 5.2 7.2 2.2 1.3 5 2.3 8.4 3.3 3.4 1 5.7 1.8 7.5 2.9 1.9 1.2 2.9 2.6 3 4.3.1 1.8-.7 3.5-2.4 5-2 1.8-4.9 2.7-8.3 2.7-4.9 0-9.3-1.9-12.3-5.2"/>
</svg>
